<?xml version="1.0" encoding="utf-8"?>
<!-- Generator: Adobe Illustrator 23.1.1, SVG Export Plug-In . SVG Version: 6.00 Build 0)  -->
<svg version="1.1" id="Calque_1" xmlns="http://www.w3.org/2000/svg" xmlns:xlink="http://www.w3.org/1999/xlink" x="0px" y="0px"
	 viewBox="0 0 56 56" style="enable-background:new 0 0 56 56;" xml:space="preserve">
<style type="text/css">
	.st0{clip-path:url(#SVGID_2_);}
	.st1{fill:#DB4437;}
	.st2{fill:url(#SVGID_3_);}
	.st3{clip-path:url(#SVGID_5_);fill:#3E2723;fill-opacity:0.15;}
	.st4{clip-path:url(#SVGID_7_);}
	.st5{fill:#0F9D58;}
	.st6{fill:url(#SVGID_8_);}
	.st7{clip-path:url(#SVGID_10_);fill:#263238;fill-opacity:0.15;}
	.st8{clip-path:url(#SVGID_12_);}
	.st9{clip-path:url(#SVGID_14_);}
	.st10{fill:#FFCD40;}
	.st11{fill:url(#SVGID_15_);}
	.st12{clip-path:url(#SVGID_17_);}
	.st13{fill:url(#SVGID_18_);}
	.st14{clip-path:url(#SVGID_20_);}
	.st15{clip-path:url(#SVGID_22_);}
	.st16{fill:url(#SVGID_23_);}
	.st17{clip-path:url(#SVGID_25_);fill:url(#SVGID_26_);}
	.st18{clip-path:url(#SVGID_28_);}
	.st19{clip-path:url(#SVGID_30_);}
	.st20{fill:url(#SVGID_31_);}
	.st21{clip-path:url(#SVGID_33_);fill:url(#SVGID_34_);}
	.st22{clip-path:url(#SVGID_36_);fill:url(#SVGID_37_);}
	.st23{clip-path:url(#SVGID_39_);}
	.st24{fill:#F1F1F1;}
	.st25{fill:#4285F4;}
	.st26{clip-path:url(#SVGID_41_);}
	.st27{fill:#3E2723;fill-opacity:0.2;}
	.st28{fill:#FFFFFF;fill-opacity:0.1;}
	.st29{opacity:0.1;fill:#3E2723;enable-background:new    ;}
	.st30{fill:#FFFFFF;fill-opacity:0.2;}
	.st31{clip-path:url(#SVGID_43_);}
	.st32{fill:#3E2723;fill-opacity:0.15;}
	.st33{fill:url(#SVGID_44_);}
	.st34{fill:none;}
</style>
    <g>
	<defs>
		<circle id="SVGID_1_" cx="28" cy="28" r="25.67"/>
	</defs>
        <clipPath id="SVGID_2_">
		<use xlink:href="#SVGID_1_" style="overflow:visible;"/>
	</clipPath>
        <g class="st0">
		<path class="st1" d="M6.41,2.33v31.5H17.9L28,16.33h25.67v-14H6.41z"/>

            <linearGradient id="SVGID_3_" gradientUnits="userSpaceOnUse" x1="31.2261" y1="-26.5239" x2="92.4761"
                            y2="9.2543" gradientTransform="matrix(0.25 0 0 -0.25 0.75 15.25)">
			<stop offset="0" style="stop-color:#A52714;stop-opacity:0.6"/>
                <stop offset="0.66" style="stop-color:#A52714;stop-opacity:0"/>
		</linearGradient>
            <path class="st2" d="M6.41,2.33v31.5H17.9L28,16.33h25.67v-14H6.41z"/>
	</g>
</g>
    <g>
	<defs>
		<circle id="SVGID_4_" cx="28" cy="28" r="25.67"/>
	</defs>
        <clipPath id="SVGID_5_">
		<use xlink:href="#SVGID_4_" style="overflow:visible;"/>
	</clipPath>
        <path class="st3" d="M18.17,33.73L6.56,13.81L6.39,14.1l11.53,19.78L18.17,33.73z"/>
</g>
    <g>
	<defs>
		<circle id="SVGID_6_" cx="28" cy="28" r="25.67"/>
	</defs>
        <clipPath id="SVGID_7_">
		<use xlink:href="#SVGID_6_" style="overflow:visible;"/>
	</clipPath>
        <g class="st4">
		<path class="st5" d="M2.33,53.67h24.43l11.34-11.34v-8.49H17.9L2.33,7.14V53.67z"/>

            <linearGradient id="SVGID_8_" gradientUnits="userSpaceOnUse" x1="126.3523" y1="-130.908" x2="58.296"
                            y2="-91.0477" gradientTransform="matrix(0.25 0 0 -0.25 0.75 15.25)">
			<stop offset="0" style="stop-color:#055524;stop-opacity:0.4"/>
                <stop offset="0.33" style="stop-color:#055524;stop-opacity:0"/>
		</linearGradient>
            <path class="st6" d="M2.33,53.67h24.43l11.34-11.34v-8.49H17.9L2.33,7.14V53.67z"/>
	</g>
</g>
    <g>
	<defs>
		<circle id="SVGID_9_" cx="28" cy="28" r="25.67"/>
	</defs>
        <clipPath id="SVGID_10_">
		<use xlink:href="#SVGID_9_" style="overflow:visible;"/>
	</clipPath>
        <path class="st7" d="M37.87,34.22l-0.24-0.14l-11.2,19.59h0.34L37.87,34.22L37.87,34.22z"/>
</g>
    <g>
	<defs>
		<circle id="SVGID_11_" cx="28" cy="28" r="25.67"/>
	</defs>
        <clipPath id="SVGID_12_">
		<use xlink:href="#SVGID_11_" style="overflow:visible;"/>
	</clipPath>
        <g class="st8">
		<g>
			<defs>
				<polygon id="SVGID_13_"
                         points="2.33,53.67 26.77,53.67 38.11,42.33 38.11,33.83 17.9,33.83 2.33,7.14 				"/>
			</defs>
            <clipPath id="SVGID_14_">
				<use xlink:href="#SVGID_13_" style="overflow:visible;"/>
			</clipPath>
            <g class="st9">
				<path class="st10" d="M28,16.33l10.11,17.5L26.77,53.67h26.9V16.33H28z"/>

                <linearGradient id="SVGID_15_" gradientUnits="userSpaceOnUse" x1="139.165" y1="2.8947" x2="156.3021"
                                y2="-72.1523" gradientTransform="matrix(0.25 0 0 -0.25 0.75 15.25)">
					<stop offset="0" style="stop-color:#EA6100;stop-opacity:0.3"/>
                    <stop offset="0.66" style="stop-color:#EA6100;stop-opacity:0"/>
				</linearGradient>
                <path class="st11" d="M28,16.33l10.11,17.5L26.77,53.67h26.9V16.33H28z"/>
			</g>
		</g>
	</g>
</g>
    <g>
	<defs>
		<circle id="SVGID_16_" cx="28" cy="28" r="25.67"/>
	</defs>
        <clipPath id="SVGID_17_">
		<use xlink:href="#SVGID_16_" style="overflow:visible;"/>
	</clipPath>
        <g class="st12">
		<path class="st10" d="M28,16.33l10.11,17.5L26.77,53.67h26.9V16.33H28z"/>

            <linearGradient id="SVGID_18_" gradientUnits="userSpaceOnUse" x1="139.165" y1="2.8947" x2="156.3021"
                            y2="-72.1523" gradientTransform="matrix(0.25 0 0 -0.25 0.75 15.25)">
			<stop offset="0" style="stop-color:#EA6100;stop-opacity:0.3"/>
                <stop offset="0.66" style="stop-color:#EA6100;stop-opacity:0"/>
		</linearGradient>
            <path class="st13" d="M28,16.33l10.11,17.5L26.77,53.67h26.9V16.33H28z"/>
	</g>
</g>
    <g>
	<defs>
		<circle id="SVGID_19_" cx="28" cy="28" r="25.67"/>
	</defs>
        <clipPath id="SVGID_20_">
		<use xlink:href="#SVGID_19_" style="overflow:visible;"/>
	</clipPath>
        <g class="st14">
		<g>
			<defs>
				<polygon id="SVGID_21_"
                         points="28,16.33 38.11,33.83 26.77,53.67 53.67,53.67 53.67,16.33 				"/>
			</defs>
            <clipPath id="SVGID_22_">
				<use xlink:href="#SVGID_21_" style="overflow:visible;"/>
			</clipPath>
            <g class="st15">
				<path class="st1" d="M6.41,2.33v31.5H17.9L28,16.33h25.67v-14H6.41z"/>

                <linearGradient id="SVGID_23_" gradientUnits="userSpaceOnUse" x1="31.2261" y1="-26.5239" x2="92.4761"
                                y2="9.2543" gradientTransform="matrix(0.25 0 0 -0.25 0.75 15.25)">
					<stop offset="0" style="stop-color:#A52714;stop-opacity:0.6"/>
                    <stop offset="0.66" style="stop-color:#A52714;stop-opacity:0"/>
				</linearGradient>
                <path class="st16" d="M6.41,2.33v31.5H17.9L28,16.33h25.67v-14H6.41z"/>
			</g>
		</g>
	</g>
</g>
    <g>
	<defs>
		<circle id="SVGID_24_" cx="28" cy="28" r="25.67"/>
	</defs>
        <clipPath id="SVGID_25_">
		<use xlink:href="#SVGID_24_" style="overflow:visible;"/>
	</clipPath>

        <radialGradient id="SVGID_26_" cx="680.5387" cy="-4.2727" r="98.091"
                        gradientTransform="matrix(0.25 0 0 -0.25 -143.25 15.25)" gradientUnits="userSpaceOnUse">
		<stop offset="0" style="stop-color:#3E2723;stop-opacity:0.2"/>
            <stop offset="1" style="stop-color:#3E2723;stop-opacity:0"/>
	</radialGradient>
        <path class="st17" d="M28,16.33v6.11l22.87-6.11H28z"/>
</g>
    <g>
	<defs>
		<circle id="SVGID_27_" cx="28" cy="28" r="25.67"/>
	</defs>
        <clipPath id="SVGID_28_">
		<use xlink:href="#SVGID_27_" style="overflow:visible;"/>
	</clipPath>
        <g class="st18">
		<g>
			<defs>
				<polygon id="SVGID_29_"
                         points="6.41,2.33 6.41,14.1 17.9,33.83 28,16.33 53.67,16.33 53.67,2.33 				"/>
			</defs>
            <clipPath id="SVGID_30_">
				<use xlink:href="#SVGID_29_" style="overflow:visible;"/>
			</clipPath>
            <g class="st19">
				<path class="st5" d="M2.33,53.67h24.43l11.34-11.34v-8.49H17.9L2.33,7.14V53.67z"/>

                <linearGradient id="SVGID_31_" gradientUnits="userSpaceOnUse" x1="126.3523" y1="-130.908" x2="58.296"
                                y2="-91.0477" gradientTransform="matrix(0.25 0 0 -0.25 0.75 15.25)">
					<stop offset="0" style="stop-color:#055524;stop-opacity:0.4"/>
                    <stop offset="0.33" style="stop-color:#055524;stop-opacity:0"/>
				</linearGradient>
                <path class="st20" d="M2.33,53.67h24.43l11.34-11.34v-8.49H17.9L2.33,7.14V53.67z"/>
			</g>
		</g>
	</g>
</g>
    <g>
	<defs>
		<circle id="SVGID_32_" cx="28" cy="28" r="25.67"/>
	</defs>
        <clipPath id="SVGID_33_">
		<use xlink:href="#SVGID_32_" style="overflow:visible;"/>
	</clipPath>

        <radialGradient id="SVGID_34_" cx="598.5208" cy="4.3933" r="91.0513"
                        gradientTransform="matrix(0.25 0 0 -0.25 -143.25 15.25)" gradientUnits="userSpaceOnUse">
		<stop offset="0" style="stop-color:#3E2723;stop-opacity:0.2"/>
            <stop offset="1" style="stop-color:#3E2723;stop-opacity:0"/>
	</radialGradient>
        <path class="st21" d="M6.41,14.13l16.7,16.69l-5.21,3.01L6.41,14.13z"/>
</g>
    <g>
	<defs>
		<circle id="SVGID_35_" cx="28" cy="28" r="25.67"/>
	</defs>
        <clipPath id="SVGID_36_">
		<use xlink:href="#SVGID_35_" style="overflow:visible;"/>
	</clipPath>

        <radialGradient id="SVGID_37_" cx="684.818" cy="-51.161" r="102.515"
                        gradientTransform="matrix(0.25 0 0 -0.25 -143.25 15.25)" gradientUnits="userSpaceOnUse">
		<stop offset="0" style="stop-color:#263238;stop-opacity:0.2"/>
            <stop offset="1" style="stop-color:#263238;stop-opacity:0"/>
	</radialGradient>
        <path class="st22" d="M26.78,53.63l6.11-22.81l5.21,3.01L26.78,53.63z"/>
</g>
    <g>
	<defs>
		<circle id="SVGID_38_" cx="28" cy="28" r="25.67"/>
	</defs>
        <clipPath id="SVGID_39_">
		<use xlink:href="#SVGID_38_" style="overflow:visible;"/>
	</clipPath>
        <g class="st23">
		<circle class="st24" cx="28" cy="28" r="11.67"/>
            <circle class="st25" cx="28" cy="28" r="9.33"/>
	</g>
</g>
    <g>
	<defs>
		<circle id="SVGID_40_" cx="28" cy="28" r="25.67"/>
	</defs>
        <clipPath id="SVGID_41_">
		<use xlink:href="#SVGID_40_" style="overflow:visible;"/>
	</clipPath>
        <g class="st26">
		<path class="st27"
              d="M28,16.04c-6.44,0-11.67,5.22-11.67,11.67V28c0-6.44,5.22-11.67,11.67-11.67h25.67v-0.29H28z"/>
            <path class="st28" d="M38.09,33.83c-2.02,3.48-5.78,5.83-10.09,5.83c-4.32,0-8.08-2.35-10.09-5.83h-0.01L2.33,7.14v0.29
			L17.9,34.12h0.01c2.02,3.48,5.78,5.83,10.09,5.83c4.31,0,8.07-2.35,10.09-5.83h0.01v-0.29H38.09z"/>
            <path class="st29" d="M28.29,16.33c-0.05,0-0.1,0.01-0.15,0.01c6.38,0.08,11.52,5.26,11.52,11.66s-5.15,11.58-11.52,11.66
			c0.05,0,0.1,0.01,0.15,0.01c6.44,0,11.67-5.22,11.67-11.67S34.73,16.33,28.29,16.33z"/>
            <path class="st30" d="M38.21,34.22c0.99-1.72,1.57-3.7,1.57-5.82c0-1.23-0.19-2.41-0.55-3.53c0.28,1,0.44,2.04,0.44,3.13
			c0,2.12-0.57,4.11-1.57,5.82l0.01,0.01L26.77,53.67h0.34l11.11-19.44C38.21,34.23,38.21,34.22,38.21,34.22z"/>
	</g>
</g>
    <g>
	<defs>
		<circle id="SVGID_42_" cx="28" cy="28" r="25.67"/>
	</defs>
        <clipPath id="SVGID_43_">
		<use xlink:href="#SVGID_42_" style="overflow:visible;"/>
	</clipPath>
        <g class="st31">
		<path class="st30" d="M28,2.62c14.13,0,25.58,11.41,25.66,25.52c0-0.05,0-0.1,0-0.15C53.67,13.83,42.17,2.33,28,2.33
			S2.33,13.83,2.33,28c0,0.05,0,0.1,0,0.15C2.41,14.04,13.87,2.62,28,2.62z"/>
            <path class="st32" d="M28,53.38c14.13,0,25.58-11.41,25.66-25.52c0,0.05,0,0.1,0,0.15c0,14.18-11.49,25.67-25.67,25.67
			S2.33,42.18,2.33,28c0-0.05,0-0.1,0-0.15C2.41,41.96,13.87,53.38,28,53.38z"/>
	</g>
</g>
    <radialGradient id="SVGID_44_" cx="37.0003" cy="23.6503" r="206.2037"
                    gradientTransform="matrix(0.25 0 0 -0.25 0.75 15.25)" gradientUnits="userSpaceOnUse">
	<stop offset="0" style="stop-color:#FFFFFF;stop-opacity:0.1"/>
        <stop offset="1" style="stop-color:#FFFFFF;stop-opacity:0"/>
</radialGradient>
    <circle class="st33" cx="28" cy="28" r="25.67"/>
    <path class="st34" d="M0,0h56v56H0V0z"/>
</svg>
