<svg width="56" height="56" viewBox="0 0 56 56" fill="none" xmlns="http://www.w3.org/2000/svg">
<g clip-path="url(#clip0)">
<path d="M18.0425 33.25C18.0425 34.5975 18.2437 35.8225 18.655 36.925C19.0925 38.01 19.6612 38.9813 20.3875 39.83C21.1137 40.6787 21.9625 41.405 22.96 42.0175C23.9225 42.63 24.9725 43.1375 26.0925 43.5312C27.2038 43.9338 28.3675 44.2313 29.5487 44.4238C30.7475 44.6162 31.9112 44.7125 33.0925 44.7125C34.58 44.7125 35.9625 44.5988 37.275 44.3625C38.5875 44.1175 39.865 43.7938 41.125 43.3825C42.385 42.9713 43.6012 42.4813 44.8175 41.9212C46.0425 41.3612 47.285 40.7488 48.5625 40.0662V51.9312C47.1362 52.6312 45.7362 53.2175 44.3363 53.725C42.9362 54.215 41.5363 54.6437 40.11 54.985C38.6838 55.335 37.24 55.5975 35.7612 55.755C34.2825 55.9125 32.7688 56 31.1938 56C29.0938 56 27.0638 55.755 25.1125 55.2738C23.1613 54.7925 21.3325 54.1012 19.6175 53.1912C17.9025 52.2812 16.3363 51.1787 14.91 49.8837C13.475 48.5887 12.2587 47.1275 11.235 45.5087C10.2113 43.89 9.42375 42.1138 8.855 40.2062C8.30375 38.2988 8.02375 36.2688 8.02375 34.1163C8.02375 31.815 8.33875 29.6275 8.96875 27.5362C9.6075 25.4362 10.5087 23.5287 11.6987 21.7787C12.88 20.0287 14.3237 18.4712 16.03 17.115C17.7362 15.7587 19.6525 14.6475 21.7875 13.79C20.6237 14.9538 19.7137 16.3275 19.075 17.9287C18.4187 19.5212 18.0075 21.1225 17.8238 22.7237H37.7563C37.7563 20.7113 37.555 18.9613 37.1437 17.4563C36.7325 15.9513 36.0763 14.7 35.1575 13.7113C34.2475 12.7137 33.075 11.9612 31.6313 11.4712C30.1875 10.9725 28.4463 10.7188 26.4075 10.7188C24.0013 10.7188 21.595 11.0687 19.1888 11.795C16.7825 12.495 14.4987 13.5012 12.3288 14.77C10.1588 16.0562 8.16375 17.57 6.34375 19.3025C4.52375 21.0525 2.9925 22.9338 1.75 24.9725C2.0125 22.61 2.5375 20.335 3.26375 18.1737C3.99 16.0125 4.9525 14 6.1075 12.1362C7.2625 10.2987 8.61875 8.61875 10.1675 7.11375C11.7162 5.60875 13.4313 4.31375 15.33 3.26375C17.2288 2.21375 19.2412 1.365 21.4287 0.79625C23.6162 0.2975 25.9438 0 28.3938 0C29.8288 0 31.255 0.13125 32.6812 0.385C34.1075 0.6475 35.4987 0.9975 36.855 1.4525C39.55 2.38 41.9562 3.675 44.0737 5.32C46.1912 6.9825 47.9675 8.8725 49.4113 11.0337C50.855 13.195 51.9487 15.5838 52.7012 18.1825C53.4538 20.7812 53.8387 23.485 53.8387 26.2937V33.25H18.0425Z" fill="#0078D7"/>
</g>
<defs>
<clipPath id="clip0">
<rect width="56" height="56" fill="white"/>
</clipPath>
</defs>
</svg>
