<svg width="56" height="56" viewBox="0 0 56 56" fill="none" xmlns="http://www.w3.org/2000/svg">
<path d="M51.9285 19.0633C50.8198 16.3954 48.5706 13.5148 46.8093 12.6042C48.0656 15.0371 48.9373 17.65 49.3936 20.3499L49.3982 20.3927C46.513 13.1994 41.6203 10.2991 37.6243 3.98349C37.4222 3.66416 37.2201 3.34416 37.0232 3.00639C36.9106 2.81348 36.8204 2.63965 36.7421 2.47966C36.5763 2.15871 36.4486 1.81953 36.3615 1.46898C36.3616 1.4528 36.3558 1.43715 36.3451 1.42501C36.3344 1.41286 36.3196 1.40508 36.3036 1.40314C36.2878 1.39882 36.2712 1.39882 36.2555 1.40314C36.2522 1.40314 36.2469 1.40906 36.243 1.41038C36.239 1.4117 36.2305 1.41762 36.2245 1.42026L36.2344 1.40314C29.8247 5.15614 27.6499 12.1038 27.4498 15.5789C24.89 15.7549 22.4427 16.6982 20.427 18.2857C20.2167 18.1076 19.997 17.941 19.7686 17.7866C19.1872 15.7514 19.1624 13.5975 19.6969 11.5494C17.343 12.6897 15.2514 14.3062 13.5545 16.2966H13.5426C12.5313 15.0147 12.6024 10.7876 12.6603 9.90467C12.3611 10.0249 12.0755 10.1765 11.8083 10.357C10.9155 10.9942 10.0809 11.7092 9.31422 12.4936C8.44056 13.3794 7.64262 14.3368 6.92876 15.3557V15.3597V15.3551C5.28814 17.681 4.12448 20.3088 3.50497 23.0869L3.47074 23.2555C3.42267 23.48 3.24951 24.6046 3.21988 24.8488C3.21988 24.8679 3.21593 24.8857 3.21395 24.9048C2.99057 26.0658 2.85216 27.2416 2.7998 28.4228V28.5544C2.8054 34.9439 5.20767 41.0989 9.53184 45.8029C13.856 50.5068 19.7875 53.4175 26.1539 53.9598C32.5204 54.502 38.8586 52.6362 43.916 48.7313C48.9734 44.8263 52.3819 39.1663 53.4679 32.8697C53.5107 32.5405 53.5456 32.2146 53.5838 31.8821C54.1094 27.538 53.5404 23.1314 51.9285 19.0633ZM22.5169 39.0385C22.636 39.0957 22.748 39.1576 22.8704 39.2123L22.8882 39.2235C22.7644 39.1642 22.6407 39.1026 22.5169 39.0385ZM49.4002 20.3986V20.3742L49.4048 20.4012L49.4002 20.3986Z" fill="url(#paint0_linear)"/>
<path d="M51.9285 19.0634C50.8198 16.3954 48.5706 13.5148 46.8093 12.6042C48.0656 15.0372 48.9373 17.6501 49.3936 20.3499V20.3743L49.3982 20.4013C51.3651 26.0298 51.0806 32.2006 48.6042 37.6242C45.6795 43.8996 38.6001 50.3318 27.5189 50.019C15.5455 49.6799 5.00091 40.7952 3.02959 29.1583C2.67075 27.3232 3.02959 26.3929 3.21 24.9016C2.9639 26.06 2.82657 27.2389 2.7998 28.4228V28.5545C2.8054 34.944 5.20767 41.0989 9.53184 45.8029C13.856 50.5069 19.7875 53.4176 26.1539 53.9598C32.5204 54.502 38.8586 52.6363 43.916 48.7313C48.9734 44.8264 52.3819 39.1663 53.4679 32.8698C53.5107 32.5406 53.5456 32.2147 53.5838 31.8822C54.1094 27.538 53.5404 23.1315 51.9285 19.0634Z" fill="url(#paint1_radial)"/>
<path d="M51.9285 19.0634C50.8198 16.3954 48.5706 13.5148 46.8093 12.6042C48.0656 15.0372 48.9373 17.6501 49.3936 20.3499V20.3743L49.3982 20.4013C51.3651 26.0298 51.0806 32.2006 48.6042 37.6242C45.6795 43.8996 38.6001 50.3318 27.5189 50.019C15.5455 49.6799 5.00091 40.7952 3.02959 29.1583C2.67075 27.3232 3.02959 26.3929 3.21 24.9016C2.9639 26.06 2.82657 27.2389 2.7998 28.4228V28.5545C2.8054 34.944 5.20767 41.0989 9.53184 45.8029C13.856 50.5069 19.7875 53.4176 26.1539 53.9598C32.5204 54.502 38.8586 52.6363 43.916 48.7313C48.9734 44.8264 52.3819 39.1663 53.4679 32.8698C53.5107 32.5406 53.5456 32.2147 53.5838 31.8822C54.1094 27.538 53.5404 23.1315 51.9285 19.0634Z" fill="url(#paint2_radial)"/>
<path d="M39.5278 22.063C39.5831 22.1018 39.6344 22.1407 39.6865 22.1795C39.0455 21.0429 38.2475 20.0023 37.3161 19.0883C29.3848 11.1556 35.2375 1.88833 36.2245 1.41756L36.2344 1.40308C29.8246 5.15607 27.6499 12.1037 27.4497 15.5789C27.7473 15.5585 28.0423 15.5334 28.3465 15.5334C30.6208 15.5376 32.8534 16.144 34.8174 17.2909C36.7813 18.4378 38.4066 20.0843 39.5278 22.063Z" fill="url(#paint3_radial)"/>
<path d="M28.3631 23.6472C28.321 24.2819 26.0784 26.4711 25.2942 26.4711C18.0378 26.4711 16.8599 30.8608 16.8599 30.8608C17.1812 34.5572 19.7569 37.6017 22.8706 39.2122C23.0128 39.286 23.157 39.3525 23.3012 39.4177C23.551 39.5283 23.8007 39.6306 24.0505 39.7245C25.1191 40.1027 26.2383 40.3186 27.3709 40.3651C40.0896 40.9617 42.5534 25.1556 33.375 20.569C35.5403 20.2873 37.733 20.8197 39.528 22.063C38.4068 20.0843 36.7815 18.4378 34.8176 17.2909C32.8536 16.144 30.621 15.5376 28.3467 15.5334C28.0438 15.5334 27.7475 15.5585 27.4499 15.5789C24.8902 15.7548 22.4429 16.6981 20.4272 18.2856C20.8163 18.6149 21.2555 19.0547 22.1806 19.9666C23.9122 21.6726 28.3533 23.4398 28.3631 23.6472Z" fill="url(#paint4_radial)"/>
<path d="M28.3631 23.6472C28.321 24.2819 26.0784 26.4711 25.2942 26.4711C18.0378 26.4711 16.8599 30.8608 16.8599 30.8608C17.1812 34.5572 19.7569 37.6017 22.8706 39.2122C23.0128 39.286 23.157 39.3525 23.3012 39.4177C23.551 39.5283 23.8007 39.6306 24.0505 39.7245C25.1191 40.1027 26.2383 40.3186 27.3709 40.3651C40.0896 40.9617 42.5534 25.1556 33.375 20.569C35.5403 20.2873 37.733 20.8197 39.528 22.063C38.4068 20.0843 36.7815 18.4378 34.8176 17.2909C32.8536 16.144 30.621 15.5376 28.3467 15.5334C28.0438 15.5334 27.7475 15.5585 27.4499 15.5789C24.8902 15.7548 22.4429 16.6981 20.4272 18.2856C20.8163 18.6149 21.2555 19.0547 22.1806 19.9666C23.9122 21.6726 28.3533 23.4398 28.3631 23.6472Z" fill="url(#paint5_radial)"/>
<path d="M19.2372 17.4369C19.444 17.5686 19.6145 17.6832 19.764 17.7865C19.1825 15.7513 19.1577 13.5974 19.6922 11.5493C17.3383 12.6897 15.2467 14.3061 13.5498 16.2965C13.6742 16.2932 17.3759 16.2267 19.2372 17.4369Z" fill="url(#paint6_radial)"/>
<path d="M3.03297 29.1581C5.00231 40.795 15.5489 49.6798 27.5223 50.0188C38.6035 50.3322 45.6828 43.8995 48.6075 37.6241C51.084 32.2004 51.3685 26.0296 49.4016 20.4011V20.3767C49.4016 20.3576 49.3976 20.3464 49.4016 20.3524L49.4062 20.3952C50.3115 26.3058 47.3052 32.0321 42.6054 35.9043L42.5909 35.9372C33.4336 43.3951 24.67 40.4368 22.8962 39.2293C22.7724 39.17 22.6486 39.1084 22.5249 39.0443C17.1857 36.4922 14.98 31.6278 15.4528 27.4561C14.1854 27.4748 12.9398 27.1255 11.8668 26.4506C10.7939 25.7758 9.93974 24.8042 9.4078 23.6537C10.8093 22.7951 12.4074 22.3097 14.0497 22.2437C15.692 22.1778 17.3238 22.5336 18.7896 23.2771C21.8117 24.649 25.2506 24.7842 28.371 23.6537C28.3611 23.4463 23.9201 21.6784 22.1884 19.9731C21.2633 19.0612 20.8242 18.622 20.435 18.2922C20.2247 18.114 20.0049 17.9474 19.7766 17.7931C19.6252 17.6897 19.4546 17.5778 19.2499 17.4435C17.3885 16.2333 13.6869 16.2998 13.5644 16.3031H13.5526C12.5412 15.0211 12.6123 10.7941 12.6703 9.91113C12.3711 10.0314 12.0855 10.183 11.8183 10.3635C10.9255 11.0007 10.0909 11.7156 9.32419 12.5C8.4474 13.3833 7.64615 14.3385 6.92885 15.3556V15.3596V15.355C5.28822 17.6809 4.12457 20.3087 3.50506 23.0868C3.49255 23.1388 2.58591 27.1025 3.03297 29.1581Z" fill="url(#paint7_radial)"/>
<path d="M37.3176 19.0883C38.2492 20.0033 39.0471 21.0451 39.6879 22.1829C39.8281 22.2889 39.9591 22.3943 40.0704 22.4963C45.856 27.8295 42.8246 35.3684 42.5988 35.905C47.2986 32.0329 50.3023 26.3066 49.3996 20.3959C46.5131 13.1994 41.6203 10.2991 37.6244 3.98349C37.4222 3.66416 37.2201 3.34416 37.0232 3.00639C36.9107 2.81348 36.8205 2.63965 36.7421 2.47966C36.5764 2.15871 36.4487 1.81953 36.3615 1.46898C36.3617 1.4528 36.3558 1.43715 36.3451 1.42501C36.3344 1.41286 36.3197 1.40508 36.3036 1.40314C36.2879 1.39882 36.2713 1.39882 36.2555 1.40314C36.2522 1.40314 36.247 1.40906 36.243 1.41038C36.2391 1.4117 36.2305 1.41762 36.2246 1.42026C35.2376 1.88839 29.3849 11.1557 37.3176 19.0883Z" fill="url(#paint8_radial)"/>
<path d="M40.0663 22.4929C39.955 22.3909 39.824 22.2855 39.6837 22.1795C39.6317 22.1407 39.5804 22.1018 39.5251 22.063C37.7301 20.8197 35.5374 20.2873 33.3721 20.569C42.5505 25.1582 40.088 40.9616 27.368 40.3651C26.2354 40.3186 25.1162 40.1027 24.0476 39.7245C23.7978 39.631 23.548 39.5287 23.2983 39.4176C23.1541 39.3518 23.0099 39.286 22.8677 39.2122L22.8855 39.2234C24.6592 40.4342 33.4202 43.3925 42.5801 35.9313L42.5946 35.8984C42.8231 35.3651 45.8545 27.8242 40.0663 22.4929Z" fill="url(#paint9_radial)"/>
<path d="M16.8598 30.8608C16.8598 30.8608 18.0377 26.4712 25.2942 26.4712C26.0784 26.4712 28.3229 24.2819 28.3631 23.6472C25.2427 24.7777 21.8038 24.6425 18.7817 23.2706C17.3159 22.5271 15.6841 22.1713 14.0418 22.2372C12.3995 22.3032 10.8014 22.7886 9.3999 23.6472C9.93184 24.7977 10.786 25.7693 11.8589 26.4441C12.9319 27.119 14.1775 27.4683 15.4449 27.4496C14.9721 31.622 17.1778 36.4864 22.517 39.0378C22.6361 39.0951 22.7481 39.1569 22.8705 39.2116C19.7542 37.6018 17.1811 34.5572 16.8598 30.8608Z" fill="url(#paint10_radial)"/>
<path d="M51.9285 19.0633C50.8198 16.3954 48.5706 13.5148 46.8093 12.6042C48.0656 15.0371 48.9373 17.65 49.3936 20.3499L49.3982 20.3927C46.513 13.1994 41.6203 10.2991 37.6243 3.98349C37.4222 3.66416 37.2201 3.34416 37.0232 3.00639C36.9106 2.81348 36.8204 2.63965 36.7421 2.47966C36.5763 2.15871 36.4486 1.81953 36.3615 1.46898C36.3616 1.4528 36.3558 1.43715 36.3451 1.42501C36.3344 1.41286 36.3196 1.40508 36.3036 1.40314C36.2878 1.39882 36.2712 1.39882 36.2555 1.40314C36.2522 1.40314 36.2469 1.40906 36.243 1.41038C36.239 1.4117 36.2305 1.41762 36.2245 1.42026L36.2344 1.40314C29.8247 5.15614 27.6499 12.1038 27.4498 15.5789C27.7474 15.5585 28.0423 15.5335 28.3465 15.5335C30.6208 15.5377 32.8535 16.144 34.8174 17.2909C36.7814 18.4378 38.4066 20.0843 39.5278 22.0631C37.7329 20.8198 35.5401 20.2874 33.3749 20.5691C42.5533 25.1583 40.0908 40.9617 27.3708 40.3652C26.2382 40.3187 25.1189 40.1027 24.0503 39.7245C23.8006 39.631 23.5508 39.5288 23.3011 39.4177C23.1569 39.3519 23.0127 39.286 22.8704 39.2123L22.8882 39.2235C22.7644 39.1642 22.6407 39.1026 22.5169 39.0385C22.636 39.0957 22.748 39.1576 22.8704 39.2123C19.7541 37.6018 17.181 34.5573 16.8597 30.8609C16.8597 30.8609 18.0376 26.4712 25.2941 26.4712C26.0783 26.4712 28.3228 24.2819 28.363 23.6472C28.3531 23.4398 23.9121 21.672 22.1804 19.9667C21.2553 19.0547 20.8162 18.6156 20.427 18.2857C20.2167 18.1076 19.997 17.941 19.7686 17.7866C19.1872 15.7514 19.1624 13.5975 19.6969 11.5494C17.343 12.6897 15.2514 14.3062 13.5545 16.2966H13.5426C12.5313 15.0147 12.6024 10.7876 12.6603 9.90467C12.3611 10.0249 12.0755 10.1765 11.8083 10.357C10.9155 10.9942 10.0809 11.7092 9.31422 12.4936C8.44056 13.3794 7.64262 14.3368 6.92876 15.3557V15.3597V15.3551C5.28814 17.681 4.12448 20.3088 3.50497 23.0869L3.47074 23.2555C3.42267 23.48 3.20737 24.6204 3.17642 24.8653C3.17642 24.8837 3.17642 24.8462 3.17642 24.8653C2.97949 26.0425 2.85373 27.2304 2.7998 28.4228V28.5544C2.8054 34.9439 5.20767 41.0989 9.53184 45.8029C13.856 50.5068 19.7875 53.4175 26.1539 53.9598C32.5204 54.502 38.8586 52.6362 43.916 48.7313C48.9734 44.8263 52.3819 39.1663 53.4679 32.8697C53.5107 32.5405 53.5456 32.2146 53.5838 31.8821C54.1094 27.538 53.5404 23.1314 51.9285 19.0633ZM49.3969 20.3742L49.4015 20.4012L49.3969 20.3742Z" fill="url(#paint11_linear)"/>
<defs>
<linearGradient id="paint0_linear" x1="48.5508" y1="9.55702" x2="6.18871" y2="50.4285" gradientUnits="userSpaceOnUse">
<stop offset="0.048" stop-color="#FFF44F"/>
<stop offset="0.111" stop-color="#FFE847"/>
<stop offset="0.225" stop-color="#FFC830"/>
<stop offset="0.368" stop-color="#FF980E"/>
<stop offset="0.401" stop-color="#FF8B16"/>
<stop offset="0.462" stop-color="#FF672A"/>
<stop offset="0.534" stop-color="#FF3647"/>
<stop offset="0.705" stop-color="#E31587"/>
</linearGradient>
<radialGradient id="paint1_radial" cx="0" cy="0" r="1" gradientUnits="userSpaceOnUse" gradientTransform="translate(46.5934 7.24331) scale(53.1984)">
<stop offset="0.129" stop-color="#FFBD4F"/>
<stop offset="0.186" stop-color="#FFAC31"/>
<stop offset="0.247" stop-color="#FF9D17"/>
<stop offset="0.283" stop-color="#FF980E"/>
<stop offset="0.403" stop-color="#FF563B"/>
<stop offset="0.467" stop-color="#FF3750"/>
<stop offset="0.71" stop-color="#F5156C"/>
<stop offset="0.782" stop-color="#EB0878"/>
<stop offset="0.86" stop-color="#E50080"/>
</radialGradient>
<radialGradient id="paint2_radial" cx="0" cy="0" r="1" gradientUnits="userSpaceOnUse" gradientTransform="translate(27.1542 28.9924) scale(53.1984)">
<stop offset="0.3" stop-color="#960E18"/>
<stop offset="0.351" stop-color="#B11927" stop-opacity="0.74"/>
<stop offset="0.435" stop-color="#DB293D" stop-opacity="0.343"/>
<stop offset="0.497" stop-color="#F5334B" stop-opacity="0.094"/>
<stop offset="0.53" stop-color="#FF3750" stop-opacity="0"/>
</radialGradient>
<radialGradient id="paint3_radial" cx="0" cy="0" r="1" gradientUnits="userSpaceOnUse" gradientTransform="translate(33.5676 -4.82954) scale(38.54)">
<stop offset="0.132" stop-color="#FFF44F"/>
<stop offset="0.252" stop-color="#FFDC3E"/>
<stop offset="0.506" stop-color="#FF9D12"/>
<stop offset="0.526" stop-color="#FF980E"/>
</radialGradient>
<radialGradient id="paint4_radial" cx="0" cy="0" r="1" gradientUnits="userSpaceOnUse" gradientTransform="translate(21.27 42.8879) scale(25.3301)">
<stop offset="0.353" stop-color="#3A8EE6"/>
<stop offset="0.472" stop-color="#5C79F0"/>
<stop offset="0.669" stop-color="#9059FF"/>
<stop offset="1" stop-color="#C139E6"/>
</radialGradient>
<radialGradient id="paint5_radial" cx="0" cy="0" r="1" gradientUnits="userSpaceOnUse" gradientTransform="translate(30.0613 24.6325) rotate(-13.5916) scale(13.4299 15.723)">
<stop offset="0.206" stop-color="#9059FF" stop-opacity="0"/>
<stop offset="0.278" stop-color="#8C4FF3" stop-opacity="0.064"/>
<stop offset="0.747" stop-color="#7716A8" stop-opacity="0.45"/>
<stop offset="0.975" stop-color="#6E008B" stop-opacity="0.6"/>
</radialGradient>
<radialGradient id="paint6_radial" cx="0" cy="0" r="1" gradientUnits="userSpaceOnUse" gradientTransform="translate(26.4825 5.06662) scale(18.2225)">
<stop stop-color="#FFE226"/>
<stop offset="0.121" stop-color="#FFDB27"/>
<stop offset="0.295" stop-color="#FFC82A"/>
<stop offset="0.502" stop-color="#FFA930"/>
<stop offset="0.732" stop-color="#FF7E37"/>
<stop offset="0.792" stop-color="#FF7139"/>
</radialGradient>
<radialGradient id="paint7_radial" cx="0" cy="0" r="1" gradientUnits="userSpaceOnUse" gradientTransform="translate(40.8058 -6.49172) scale(77.747)">
<stop offset="0.113" stop-color="#FFF44F"/>
<stop offset="0.456" stop-color="#FF980E"/>
<stop offset="0.622" stop-color="#FF5634"/>
<stop offset="0.716" stop-color="#FF3647"/>
<stop offset="0.904" stop-color="#E31587"/>
</radialGradient>
<radialGradient id="paint8_radial" cx="0" cy="0" r="1" gradientUnits="userSpaceOnUse" gradientTransform="translate(34.2532 -2.16846) rotate(83.976) scale(56.9826 37.3972)">
<stop stop-color="#FFF44F"/>
<stop offset="0.06" stop-color="#FFE847"/>
<stop offset="0.168" stop-color="#FFC830"/>
<stop offset="0.304" stop-color="#FF980E"/>
<stop offset="0.356" stop-color="#FF8B16"/>
<stop offset="0.455" stop-color="#FF672A"/>
<stop offset="0.57" stop-color="#FF3647"/>
<stop offset="0.737" stop-color="#E31587"/>
</radialGradient>
<radialGradient id="paint9_radial" cx="0" cy="0" r="1" gradientUnits="userSpaceOnUse" gradientTransform="translate(26.0532 11.8161) scale(48.5388)">
<stop offset="0.137" stop-color="#FFF44F"/>
<stop offset="0.48" stop-color="#FF980E"/>
<stop offset="0.592" stop-color="#FF5634"/>
<stop offset="0.655" stop-color="#FF3647"/>
<stop offset="0.904" stop-color="#E31587"/>
</radialGradient>
<radialGradient id="paint10_radial" cx="0" cy="0" r="1" gradientUnits="userSpaceOnUse" gradientTransform="translate(38.8663 14.6569) scale(53.1253)">
<stop offset="0.094" stop-color="#FFF44F"/>
<stop offset="0.231" stop-color="#FFE141"/>
<stop offset="0.509" stop-color="#FFAF1E"/>
<stop offset="0.626" stop-color="#FF980E"/>
</radialGradient>
<linearGradient id="paint11_linear" x1="48.0419" y1="9.33843" x2="11.996" y2="45.3837" gradientUnits="userSpaceOnUse">
<stop offset="0.167" stop-color="#FFF44F" stop-opacity="0.8"/>
<stop offset="0.266" stop-color="#FFF44F" stop-opacity="0.634"/>
<stop offset="0.489" stop-color="#FFF44F" stop-opacity="0.217"/>
<stop offset="0.6" stop-color="#FFF44F" stop-opacity="0"/>
</linearGradient>
</defs>
</svg>
